<svg width="250" height="40" viewBox="0 0 250 40" fill="none" xmlns="http://www.w3.org/2000/svg">
<path d="M149.258 23.8692C148.813 23.3892 148.378 23.0692 147.956 22.9092C147.544 22.7492 147.127 22.6692 146.704 22.6692C146.076 22.6692 145.504 22.7835 144.99 23.0121C144.487 23.2292 144.053 23.5378 143.687 23.9378C143.321 24.3264 143.036 24.7835 142.83 25.3092C142.636 25.8349 142.538 26.4006 142.538 27.0064C142.538 27.6578 142.636 28.2578 142.83 28.8064C143.036 29.3549 143.321 29.8292 143.687 30.2292C144.053 30.6292 144.487 30.9435 144.99 31.1721C145.504 31.4006 146.076 31.5149 146.704 31.5149C147.196 31.5149 147.67 31.4006 148.127 31.1721C148.596 30.9321 149.03 30.5549 149.43 30.0406L151.213 31.3092C150.664 32.0635 149.996 32.6121 149.207 32.9549C148.418 33.2978 147.578 33.4692 146.687 33.4692C145.75 33.4692 144.887 33.3206 144.098 33.0235C143.321 32.7149 142.647 32.2864 142.076 31.7378C141.516 31.1778 141.076 30.5092 140.756 29.7321C140.436 28.9549 140.276 28.0921 140.276 27.1435C140.276 26.1721 140.436 25.2921 140.756 24.5035C141.076 23.7035 141.516 23.0235 142.076 22.4635C142.647 21.9035 143.321 21.4749 144.098 21.1778C144.887 20.8692 145.75 20.7149 146.687 20.7149C147.51 20.7149 148.27 20.8635 148.967 21.1606C149.676 21.4464 150.333 21.9378 150.938 22.6349L149.258 23.8692Z" fill="black"/>
<path d="M152.011 27.1435C152.011 26.1721 152.171 25.2921 152.491 24.5035C152.811 23.7035 153.251 23.0235 153.811 22.4635C154.383 21.9035 155.057 21.4749 155.834 21.1778C156.623 20.8692 157.485 20.7149 158.423 20.7149C159.371 20.7035 160.24 20.8464 161.028 21.1435C161.817 21.4292 162.497 21.8521 163.068 22.4121C163.64 22.9721 164.085 23.6464 164.405 24.4349C164.725 25.2235 164.885 26.1035 164.885 27.0749C164.885 28.0235 164.725 28.8864 164.405 29.6635C164.085 30.4406 163.64 31.1092 163.068 31.6692C162.497 32.2292 161.817 32.6692 161.028 32.9892C160.24 33.2978 159.371 33.4578 158.423 33.4692C157.485 33.4692 156.623 33.3206 155.834 33.0235C155.057 32.7149 154.383 32.2864 153.811 31.7378C153.251 31.1778 152.811 30.5092 152.491 29.7321C152.171 28.9549 152.011 28.0921 152.011 27.1435ZM154.274 27.0064C154.274 27.6578 154.371 28.2578 154.565 28.8064C154.771 29.3549 155.057 29.8292 155.423 30.2292C155.788 30.6292 156.223 30.9435 156.725 31.1721C157.24 31.4006 157.811 31.5149 158.44 31.5149C159.068 31.5149 159.64 31.4006 160.154 31.1721C160.668 30.9435 161.108 30.6292 161.474 30.2292C161.84 29.8292 162.12 29.3549 162.314 28.8064C162.52 28.2578 162.623 27.6578 162.623 27.0064C162.623 26.4006 162.52 25.8349 162.314 25.3092C162.12 24.7835 161.84 24.3264 161.474 23.9378C161.108 23.5378 160.668 23.2292 160.154 23.0121C159.64 22.7835 159.068 22.6692 158.44 22.6692C157.811 22.6692 157.24 22.7835 156.725 23.0121C156.223 23.2292 155.788 23.5378 155.423 23.9378C155.057 24.3264 154.771 24.7835 154.565 25.3092C154.371 25.8349 154.274 26.4006 154.274 27.0064Z" fill="black"/>
<path d="M166.943 21.0235H169.806L175.686 30.0406H175.72V21.0235H177.88V33.1606H175.137L169.137 23.8521H169.103V33.1606H166.943V21.0235Z" fill="black"/>
<path d="M180.587 21.0235H183.45L189.33 30.0406H189.364V21.0235H191.524V33.1606H188.781L182.781 23.8521H182.747V33.1606H180.587V21.0235Z" fill="black"/>
<path d="M194.231 21.0235H202.271V22.9778H196.391V25.9606H201.962V27.9149H196.391V31.2064H202.579V33.1606H194.231V21.0235Z" fill="black"/>
<path d="M213.042 23.8692C212.596 23.3892 212.162 23.0692 211.739 22.9092C211.328 22.7492 210.911 22.6692 210.488 22.6692C209.859 22.6692 209.288 22.7835 208.773 23.0121C208.271 23.2292 207.836 23.5378 207.471 23.9378C207.105 24.3264 206.819 24.7835 206.613 25.3092C206.419 25.8349 206.322 26.4006 206.322 27.0064C206.322 27.6578 206.419 28.2578 206.613 28.8064C206.819 29.3549 207.105 29.8292 207.471 30.2292C207.836 30.6292 208.271 30.9435 208.773 31.1721C209.288 31.4006 209.859 31.5149 210.488 31.5149C210.979 31.5149 211.453 31.4006 211.911 31.1721C212.379 30.9321 212.813 30.5549 213.213 30.0406L214.996 31.3092C214.448 32.0635 213.779 32.6121 212.991 32.9549C212.202 33.2978 211.362 33.4692 210.471 33.4692C209.533 33.4692 208.671 33.3206 207.882 33.0235C207.105 32.7149 206.431 32.2864 205.859 31.7378C205.299 31.1778 204.859 30.5092 204.539 29.7321C204.219 28.9549 204.059 28.0921 204.059 27.1435C204.059 26.1721 204.219 25.2921 204.539 24.5035C204.859 23.7035 205.299 23.0235 205.859 22.4635C206.431 21.9035 207.105 21.4749 207.882 21.1778C208.671 20.8692 209.533 20.7149 210.471 20.7149C211.293 20.7149 212.053 20.8635 212.751 21.1606C213.459 21.4464 214.116 21.9378 214.722 22.6349L213.042 23.8692Z" fill="black"/>
<path d="M218.932 22.9778H215.212V21.0235H224.812V22.9778H221.092V33.1606H218.932V22.9778Z" fill="black"/>
<path d="M225.638 27.1435C225.638 26.1721 225.798 25.2921 226.118 24.5035C226.438 23.7035 226.878 23.0235 227.438 22.4635C228.01 21.9035 228.684 21.4749 229.461 21.1778C230.25 20.8692 231.113 20.7149 232.05 20.7149C232.998 20.7035 233.867 20.8464 234.656 21.1435C235.444 21.4292 236.124 21.8521 236.696 22.4121C237.267 22.9721 237.713 23.6464 238.033 24.4349C238.353 25.2235 238.513 26.1035 238.513 27.0749C238.513 28.0235 238.353 28.8864 238.033 29.6635C237.713 30.4406 237.267 31.1092 236.696 31.6692C236.124 32.2292 235.444 32.6692 234.656 32.9892C233.867 33.2978 232.998 33.4578 232.05 33.4692C231.113 33.4692 230.25 33.3206 229.461 33.0235C228.684 32.7149 228.01 32.2864 227.438 31.7378C226.878 31.1778 226.438 30.5092 226.118 29.7321C225.798 28.9549 225.638 28.0921 225.638 27.1435ZM227.901 27.0064C227.901 27.6578 227.998 28.2578 228.193 28.8064C228.398 29.3549 228.684 29.8292 229.05 30.2292C229.416 30.6292 229.85 30.9435 230.353 31.1721C230.867 31.4006 231.438 31.5149 232.067 31.5149C232.696 31.5149 233.267 31.4006 233.781 31.1721C234.295 30.9435 234.736 30.6292 235.101 30.2292C235.467 29.8292 235.747 29.3549 235.941 28.8064C236.147 28.2578 236.25 27.6578 236.25 27.0064C236.25 26.4006 236.147 25.8349 235.941 25.3092C235.747 24.7835 235.467 24.3264 235.101 23.9378C234.736 23.5378 234.295 23.2292 233.781 23.0121C233.267 22.7835 232.696 22.6692 232.067 22.6692C231.438 22.6692 230.867 22.7835 230.353 23.0121C229.85 23.2292 229.416 23.5378 229.05 23.9378C228.684 24.3264 228.398 24.7835 228.193 25.3092C227.998 25.8349 227.901 26.4006 227.901 27.0064Z" fill="black"/>
<path d="M240.57 21.0235H244.787C245.37 21.0235 245.93 21.0806 246.467 21.1949C247.016 21.2978 247.501 21.4806 247.924 21.7435C248.347 22.0064 248.684 22.3606 248.936 22.8064C249.187 23.2521 249.313 23.8178 249.313 24.5035C249.313 25.3835 249.067 26.1206 248.576 26.7149C248.096 27.3092 247.404 27.6692 246.501 27.7949L249.724 33.1606H247.118L244.307 28.0178H242.73V33.1606H240.57V21.0235ZM244.41 26.1664C244.718 26.1664 245.027 26.1549 245.336 26.1321C245.644 26.0978 245.924 26.0292 246.176 25.9264C246.438 25.8121 246.65 25.6464 246.81 25.4292C246.97 25.2006 247.05 24.8864 247.05 24.4864C247.05 24.1321 246.976 23.8464 246.827 23.6292C246.678 23.4121 246.484 23.2521 246.244 23.1492C246.004 23.0349 245.736 22.9606 245.438 22.9264C245.153 22.8921 244.873 22.8749 244.598 22.8749H242.73V26.1664H244.41Z" fill="black"/>
<path d="M140.276 5.71428H142.641L144.921 14.4571H144.956L147.681 5.71428H149.807L152.481 14.4571H152.516L154.898 5.71428H157.093L153.561 17.8514H151.504L148.693 8.61142H148.658L145.847 17.8514H143.858L140.276 5.71428Z" fill="black"/>
<path d="M161.945 5.71428H163.814L169.042 17.8514H166.574L165.442 15.0743H160.179L159.082 17.8514H156.665L161.945 5.71428ZM164.688 13.2229L162.819 8.28571L160.917 13.2229H164.688Z" fill="black"/>
<path d="M170.391 5.71428H172.551V15.8971H177.711V17.8514H170.391V5.71428Z" fill="black"/>
<path d="M179.281 5.71428H181.441V15.8971H186.601V17.8514H179.281V5.71428Z" fill="black"/>
<path d="M188.17 5.71428H196.21V7.66856H190.33V10.6514H195.902V12.6057H190.33V15.8971H196.519V17.8514H188.17V5.71428Z" fill="black"/>
<path d="M201.136 7.66856H197.416V5.71428H207.016V7.66856H203.296V17.8514H201.136V7.66856Z" fill="black"/>
<path d="M82.5242 22.0499L85.0406 13.7864L87.5571 22.0499H82.5242ZM82.3249 5.92738L72.9385 33.6532H78.9428L80.9242 27.2429H89.157L91.1385 33.6532H97.1428L87.7556 5.92738H82.3249Z" fill="black"/>
<path d="M126.308 5.71428H131.889V33.4401H126.308V5.71428Z" fill="black"/>
<path d="M105.897 17.6019V10.9073H110.644C112.809 10.9073 113.952 12.0648 113.952 14.2549C113.952 16.4446 112.809 17.6019 110.644 17.6019H105.897ZM111.545 22.7692C116.671 22.5004 119.611 19.3971 119.611 14.2549C119.611 8.90704 116.331 5.71428 110.838 5.71428H100.316V33.4399H105.897V24.7755L113.541 33.4399H120.729L111.243 22.785L111.545 22.7692Z" fill="black"/>
<path d="M59.2266 33.6532H64.8075V11.1206H74.1764V5.92738H49.8572V11.1206H59.2266V33.6532Z" fill="black"/>
<path d="M35.6249 13.1798L35.6203 17.9866L7.39428 10.7253L16.9266 4.51218L35.6249 13.1798ZM18.5033 33.4029L18.4961 17.6657L33.5507 21.5432L18.5033 33.4029ZM14.5637 31.8949L4.21436 20.2926L4.20822 13.9597L14.5473 16.6486L14.5637 31.8949ZM0.275635 10.6705L0.277151 21.8103L16.5273 40L39.5291 21.8583L39.5613 10.6536L16.5799 0L0.275635 10.6705Z" fill="black"/>
</svg>
